<svg xmlns="http://www.w3.org/2000/svg" xmlns:xlink="http://www.w3.org/1999/xlink" xmlns:s="https://github.com/nturley/netlistsvg" width="379" height="289">
  <style>svg {
    stroke:#000;
    fill:none;
  }
  text {
    fill:#000;
    stroke:none;
    font-size:10px;
    font-weight: bold;
    font-family: "Courier New", monospace;
  }
  .nodelabel {
    text-anchor: middle;
  }
  .inputPortLabel {
    text-anchor: end;
  }
  .splitjoinBody {
    fill:#000;
  }</style>
  <g s:type="not" transform="translate(77,137)" s:width="30" s:height="20" id="cell_\1">
    <s:alias val="$_NOT_"/>
    <s:alias val="$not"/>
    <s:alias val="$logic_not"/>
    <path d="M0,0 L0,20 L20,10 Z" class="cell_\1"/>
    <circle cx="23" cy="10" r="3" class="cell_\1"/>
    <g s:x="0" s:y="10" s:pid="A"/>
    <g s:x="25" s:y="10" s:pid="Y"/>
  </g>
  <g s:type="or" transform="translate(207,239.5)" s:width="30" s:height="25" id="cell_\10">
    <s:alias val="$or"/>
    <s:alias val="$logic_or"/>
    <s:alias val="$_OR_"/>
    <path d="M0,25 L0,25 L15,25 A15 12.5 0 0 0 15,0 L0,0" class="cell_\10"/>
    <path d="M0,0 A30 25 0 0 1 0,25" class="cell_\10"/>
    <g s:x="3" s:y="5" s:pid="A"/>
    <g s:x="3" s:y="20" s:pid="B"/>
    <g s:x="30" s:y="12.5" s:pid="Y"/>
  </g>
  <g s:type="and" transform="translate(272,232)" s:width="30" s:height="25" id="cell_\11">
    <s:alias val="$and"/>
    <s:alias val="$logic_and"/>
    <s:alias val="$_AND_"/>
    <path d="M0,0 L0,25 L15,25 A15 12.5 0 0 0 15,0 Z" class="cell_\11"/>
    <g s:x="0" s:y="5" s:pid="A"/>
    <g s:x="0" s:y="20" s:pid="B"/>
    <g s:x="30" s:y="12.5" s:pid="Y"/>
  </g>
  <g s:type="or" transform="translate(142,12)" s:width="30" s:height="25" id="cell_\2">
    <s:alias val="$or"/>
    <s:alias val="$logic_or"/>
    <s:alias val="$_OR_"/>
    <path d="M0,25 L0,25 L15,25 A15 12.5 0 0 0 15,0 L0,0" class="cell_\2"/>
    <path d="M0,0 A30 25 0 0 1 0,25" class="cell_\2"/>
    <g s:x="3" s:y="5" s:pid="A"/>
    <g s:x="3" s:y="20" s:pid="B"/>
    <g s:x="30" s:y="12.5" s:pid="Y"/>
  </g>
  <g s:type="and" transform="translate(77,69.5)" s:width="30" s:height="25" id="cell_\3">
    <s:alias val="$and"/>
    <s:alias val="$logic_and"/>
    <s:alias val="$_AND_"/>
    <path d="M0,0 L0,25 L15,25 A15 12.5 0 0 0 15,0 Z" class="cell_\3"/>
    <g s:x="0" s:y="5" s:pid="A"/>
    <g s:x="0" s:y="20" s:pid="B"/>
    <g s:x="30" s:y="12.5" s:pid="Y"/>
  </g>
  <g s:type="not" transform="translate(142,72)" s:width="30" s:height="20" id="cell_\4">
    <s:alias val="$_NOT_"/>
    <s:alias val="$not"/>
    <s:alias val="$logic_not"/>
    <path d="M0,0 L0,20 L20,10 Z" class="cell_\4"/>
    <circle cx="23" cy="10" r="3" class="cell_\4"/>
    <g s:x="0" s:y="10" s:pid="A"/>
    <g s:x="25" s:y="10" s:pid="Y"/>
  </g>
  <g s:type="and" transform="translate(207,62)" s:width="30" s:height="25" id="cell_\5">
    <s:alias val="$and"/>
    <s:alias val="$logic_and"/>
    <s:alias val="$_AND_"/>
    <path d="M0,0 L0,25 L15,25 A15 12.5 0 0 0 15,0 Z" class="cell_\5"/>
    <g s:x="0" s:y="5" s:pid="A"/>
    <g s:x="0" s:y="20" s:pid="B"/>
    <g s:x="30" s:y="12.5" s:pid="Y"/>
  </g>
  <g s:type="and" transform="translate(142,127)" s:width="30" s:height="25" id="cell_\7">
    <s:alias val="$and"/>
    <s:alias val="$logic_and"/>
    <s:alias val="$_AND_"/>
    <path d="M0,0 L0,25 L15,25 A15 12.5 0 0 0 15,0 Z" class="cell_\7"/>
    <g s:x="0" s:y="5" s:pid="A"/>
    <g s:x="0" s:y="20" s:pid="B"/>
    <g s:x="30" s:y="12.5" s:pid="Y"/>
  </g>
  <g s:type="not" transform="translate(77,192)" s:width="30" s:height="20" id="cell_\8">
    <s:alias val="$_NOT_"/>
    <s:alias val="$not"/>
    <s:alias val="$logic_not"/>
    <path d="M0,0 L0,20 L20,10 Z" class="cell_\8"/>
    <circle cx="23" cy="10" r="3" class="cell_\8"/>
    <g s:x="0" s:y="10" s:pid="A"/>
    <g s:x="25" s:y="10" s:pid="Y"/>
  </g>
  <g s:type="and" transform="translate(142,247)" s:width="30" s:height="25" id="cell_\9">
    <s:alias val="$and"/>
    <s:alias val="$logic_and"/>
    <s:alias val="$_AND_"/>
    <path d="M0,0 L0,25 L15,25 A15 12.5 0 0 0 15,0 Z" class="cell_\9"/>
    <g s:x="0" s:y="5" s:pid="A"/>
    <g s:x="0" s:y="20" s:pid="B"/>
    <g s:x="30" s:y="12.5" s:pid="Y"/>
  </g>
  <g s:type="inputExt" transform="translate(12,192)" s:width="30" s:height="20" id="cell_x">
    <text x="15" y="-4" class="nodelabel cell_x" s:attribute="ref">x</text>
    <s:alias val="$_inputExt_"/>
    <path d="M0,0 L0,20 L15,20 L30,10 L15,0 Z" class="cell_x"/>
    <g s:x="28" s:y="10" s:pid="Y"/>
  </g>
  <g s:type="inputExt" transform="translate(12,257)" s:width="30" s:height="20" id="cell_y">
    <text x="15" y="-4" class="nodelabel cell_y" s:attribute="ref">y</text>
    <s:alias val="$_inputExt_"/>
    <path d="M0,0 L0,20 L15,20 L30,10 L15,0 Z" class="cell_y"/>
    <g s:x="28" s:y="10" s:pid="Y"/>
  </g>
  <g s:type="inputExt" transform="translate(12,79.5)" s:width="30" s:height="20" id="cell_z">
    <text x="15" y="-4" class="nodelabel cell_z" s:attribute="ref">z</text>
    <s:alias val="$_inputExt_"/>
    <path d="M0,0 L0,20 L15,20 L30,10 L15,0 Z" class="cell_z"/>
    <g s:x="28" s:y="10" s:pid="Y"/>
  </g>
  <g s:type="outputExt" transform="translate(337,234.5)" s:width="30" s:height="20" id="cell_F">
    <text x="15" y="-4" class="nodelabel cell_F" s:attribute="ref">F</text>
    <s:alias val="$_outputExt_"/>
    <path d="M30,0 L30,20 L15,20 L0,10 L15,0 Z" class="cell_F"/>
    <g s:x="0" s:y="10" s:pid="A"/>
  </g>
  <line x1="40" x2="62" y1="267" y2="267" class="net_3"/>
  <line x1="62" x2="62" y1="267" y2="147" class="net_3"/>
  <circle cx="62" cy="267" r="2" style="fill:#000" class="net_3"/>
  <circle cx="62" cy="147" r="2" style="fill:#000" class="net_3"/>
  <line x1="62" x2="77" y1="147" y2="147" class="net_3"/>
  <line x1="40" x2="62" y1="267" y2="267" class="net_3"/>
  <line x1="62" x2="62" y1="267" y2="74.5" class="net_3"/>
  <line x1="62" x2="77" y1="74.5" y2="74.5" class="net_3"/>
  <line x1="40" x2="142" y1="267" y2="267" class="net_3"/>
  <line x1="172" x2="182" y1="139.5" y2="139.5" class="net_7"/>
  <line x1="182" x2="182" y1="139.5" y2="244.5" class="net_7"/>
  <line x1="182" x2="210" y1="244.5" y2="244.5" class="net_7"/>
  <line x1="172" x2="210" y1="259.5" y2="259.5" class="net_8"/>
  <line x1="237" x2="247" y1="74.5" y2="74.5" class="net_10"/>
  <line x1="247" x2="247" y1="74.5" y2="237" class="net_10"/>
  <line x1="247" x2="272" y1="237" y2="237" class="net_10"/>
  <line x1="237" x2="272" y1="252" y2="252" class="net_9"/>
  <line x1="40" x2="52" y1="202" y2="202" class="net_2"/>
  <line x1="52" x2="52" y1="202" y2="17" class="net_2"/>
  <circle cx="52" cy="202" r="2" style="fill:#000" class="net_2"/>
  <line x1="52" x2="145" y1="17" y2="17" class="net_2"/>
  <line x1="40" x2="52" y1="202" y2="202" class="net_2"/>
  <line x1="52" x2="52" y1="202" y2="126" class="net_2"/>
  <line x1="52" x2="127" y1="126" y2="126" class="net_2"/>
  <line x1="127" x2="127" y1="126" y2="132" class="net_2"/>
  <circle cx="52" cy="126" r="2" style="fill:#000" class="net_2"/>
  <line x1="127" x2="142" y1="132" y2="132" class="net_2"/>
  <line x1="40" x2="77" y1="202" y2="202" class="net_2"/>
  <line x1="102" x2="117" y1="147" y2="147" class="net_6"/>
  <line x1="117" x2="117" y1="147" y2="32" class="net_6"/>
  <circle cx="117" cy="147" r="2" style="fill:#000" class="net_6"/>
  <line x1="117" x2="145" y1="32" y2="32" class="net_6"/>
  <line x1="102" x2="142" y1="147" y2="147" class="net_6"/>
  <line x1="40" x2="77" y1="89.5" y2="89.5" class="net_4"/>
  <line x1="107" x2="142" y1="82" y2="82" class="net_12"/>
  <line x1="172" x2="182" y1="24.5" y2="24.5" class="net_11"/>
  <line x1="182" x2="182" y1="24.5" y2="67" class="net_11"/>
  <line x1="182" x2="207" y1="67" y2="67" class="net_11"/>
  <line x1="167" x2="207" y1="82" y2="82" class="net_13"/>
  <line x1="102" x2="117" y1="202" y2="202" class="net_14"/>
  <line x1="117" x2="117" y1="202" y2="252" class="net_14"/>
  <line x1="117" x2="142" y1="252" y2="252" class="net_14"/>
  <line x1="302" x2="337" y1="244.5" y2="244.5" class="net_5"/>
</svg>
